<svg width="30" height="30" viewBox="0 0 30 30" fill="none" xmlns="http://www.w3.org/2000/svg">
<g clip-path="url(#clip0_60_29)">
<path d="M29.5462 13.1875L24.2312 3.235C23.5787 2.01125 22.3112 1.25125 20.9237 1.25125H9.10246C7.71746 1.25125 6.44996 2.00875 5.79746 3.22875L0.457461 13.1863C-0.153789 14.325 -0.153789 15.6863 0.457461 16.825L5.79621 26.775C6.45121 27.9938 7.71746 28.75 9.10121 28.75H20.9225C22.31 28.75 23.5775 27.99 24.23 26.7663L29.545 16.8125C30.1512 15.6775 30.1525 14.3213 29.5462 13.1875ZM21.25 16.25H16.25V21.25H13.75V16.25H8.74996V13.75H13.75V8.75H16.25V13.75H21.25V16.25Z" fill="#D90429"/>
</g>
<defs>
<clipPath id="clip0_60_29">
<rect width="30" height="30" fill="white"/>
</clipPath>
</defs>
</svg>
